<svg xmlns="http://www.w3.org/2000/svg" viewBox="0 0 24 24" width="24" height="24">
  <path fill="#E34F26" d="M3.345 2l1.47 16.53L12 21l7.185-2.47L20.655 2H3.345z"/>
  <path fill="#EF652A" d="M12 20.1l5.82-2.01 1.37-15.29H12v17.3z"/>
  <path fill="#EBEBEB" d="M12 10.5H8.5l-.3-3H12V5H5l.7 8h6.3v-2.5zm0 5.7l-.1.03-2.4-.65-.15-1.7H7l.3 3.4 4.4 1.22.1-.03v-2.27z"/>
  <path fill="#FFF" d="M12 10.5v2.5h3.3l-.3 3.5-3 .8v2.27l5.5-1.52.04-.45.6-7.1.06-.7H12zm0-5.5v2.5h7.3l.05-.6.15-1.3.1-.6H12z"/>
</svg>
