<svg xmlns="http://www.w3.org/2000/svg" viewBox="0 0 24 24" width="24" height="24">
  <path fill="#5382A1" d="M8.5 14s-.5.5.4.6c1 .2 1.5.2 2.6.2.8 0 1.8-.1 2.8-.3 0 0 .3.2.7.4-2.5 1.1-5.7-.1-5.5-.9z"/>
  <path fill="#5382A1" d="M8 12.3s-.6.4.3.5c1.2.2 2.1.2 3.7.1 1.3-.1 2.6-.4 2.6-.4s.3.2.8.4c-4.4 1.3-9.3.1-7.4-1.6z"/>
  <path fill="#E76F00" d="M13.5 9.5c.6.7-.2 1.3-.2 1.3s1.5-.8.8-1.7c-.6-.9-1.1-1.3 1.5-2.8 0 0-4.1 1-2.1 3.2z"/>
  <path fill="#5382A1" d="M17.8 16.8s.4.3-.4.6c-1.5.5-6.3.6-7.6 0-.5-.2.4-.5.7-.5.3-.1.5-.1.5-.1-.6-.4-3.8.8-1.6 1.2 5.3 1 9.7-.4 8.4-1.2z"/>
  <path fill="#5382A1" d="M9 10.3s-2.7.6-1 .9c.7.1 2.1.1 3.4 0 1.1-.1 2.1-.3 2.1-.3s-.4.2-.6.4c-2.7.7-8 .4-6.5-.4.6-.3 2.6-.6 2.6-.6z"/>
  <path fill="#5382A1" d="M15.3 13.2c2.8-1.5.5-2.8.2-2.6-.1 0-.2.1-.2.1s.1-.1.2-.2c1.5-.5 2.7 1.8-.2 2.8 0 0 0-.1 0-.1z"/>
  <path fill="#E76F00" d="M13 1s1.5 1.5-1.4 3.9c-2.3 1.9-.5 3 0 4.2-1.4-1.3-2.4-2.4-1.7-3.4C10.9 4.3 13.8 3.3 13 1z"/>
  <path fill="#5382A1" d="M9.2 18.5c2.7.2 6.8-.1 6.9-1.4 0 0-.2.5-2.2.9-2.3.4-5.1.4-6.8.1 0 0 .3.3 2.1.4z"/>
</svg>
